<?xml version="1.0" standalone="no"?>
<!DOCTYPE svg PUBLIC "-//W3C//DTD SVG 20010904//EN"
 "http://www.w3.org/TR/2001/REC-SVG-20010904/DTD/svg10.dtd">
<svg version="1.0" xmlns="http://www.w3.org/2000/svg"
 width="128.000000pt" height="128.000000pt" viewBox="0 0 128.000000 128.000000"
 preserveAspectRatio="xMidYMid meet">

<g transform="translate(0.000000,128.000000) scale(0.100000,-0.100000)"
fill="#000000" stroke="none">
<path d="M435 1001 c-36 -15 -85 -74 -104 -127 -11 -29 -32 -105 -46 -170 -32
-148 -72 -235 -118 -258 -31 -15 -33 -15 -50 6 -16 19 -18 36 -15 105 3 80 2
83 -19 83 -12 0 -26 -8 -31 -17 -13 -24 -7 -164 7 -191 37 -68 179 -7 226 98
l18 40 24 -35 c35 -52 73 -68 141 -59 60 7 82 18 82 40 0 8 19 38 43 68 23 29
53 68 67 86 l26 33 -4 -101 c-4 -97 -3 -101 21 -126 18 -18 37 -26 59 -26 34
0 94 31 114 58 9 13 13 12 26 -6 31 -45 102 -46 166 -4 13 9 32 16 41 17 9 1
33 5 54 9 23 4 37 3 37 -4 0 -5 11 -10 25 -10 21 0 25 5 25 29 0 68 -23 78
-77 31 -18 -16 -38 -30 -43 -30 -5 0 6 27 23 61 52 101 37 205 -36 249 -62 38
-133 17 -167 -50 -25 -49 -25 -52 2 -48 14 2 29 18 42 43 25 48 43 53 80 24
35 -27 56 -76 56 -126 0 -81 -79 -193 -136 -193 -27 0 -51 30 -60 78 -12 58
-44 52 -73 -13 -18 -41 -56 -85 -73 -85 -5 0 -20 11 -34 25 -25 25 -25 27 -18
140 l7 115 -24 0 c-30 -1 -53 -20 -107 -89 l-42 -53 6 123 c7 143 -3 197 -46
241 -29 28 -57 34 -95 19z m71 -78 c20 -41 24 -167 10 -276 l-7 -57 -32 47
c-43 62 -57 70 -106 57 -41 -11 -41 -11 -35 15 55 250 115 326 170 214z m-71
-328 c41 -73 43 -85 12 -85 -48 0 -103 94 -84 144 11 27 36 6 72 -59z"/>
<path d="M1217 703 c-24 -24 12 -50 44 -32 16 8 18 13 8 25 -12 15 -41 19 -52
7z"/>
</g>
</svg>
