<?xml version="1.0" standalone="no"?>
<!DOCTYPE svg PUBLIC "-//W3C//DTD SVG 20010904//EN"
 "http://www.w3.org/TR/2001/REC-SVG-20010904/DTD/svg10.dtd">
<svg version="1.0" xmlns="http://www.w3.org/2000/svg"
 width="1200.000000pt" height="497.000000pt" viewBox="0 0 1200.000000 497.000000"
 preserveAspectRatio="xMidYMid meet">

<g transform="translate(0.000000,497.000000) scale(0.100000,-0.100000)"
fill="#000000" stroke="none">
<path d="M4960 3373 c0 -802 4 -1393 10 -1459 16 -186 65 -312 154 -399 103
-99 207 -131 464 -141 l172 -7 0 206 0 207 -72 0 c-40 0 -90 5 -111 11 -50 14
-101 59 -123 112 -18 40 -19 104 -22 1430 l-2 1387 -235 0 -235 0 0 -1347z"/>
<path d="M2188 3580 c-186 -23 -350 -120 -505 -299 -39 -44 -130 -161 -203
-260 -88 -119 -137 -177 -144 -171 -6 5 -126 164 -266 354 l-255 345 -277 0
c-153 1 -278 -2 -278 -5 0 -3 181 -242 401 -531 366 -480 401 -528 389 -547
-7 -11 -94 -128 -193 -260 -280 -373 -342 -426 -514 -434 l-93 -4 0 -201 0
-200 153 6 c181 8 238 18 332 62 115 52 182 124 403 433 107 150 198 270 202
265 4 -4 126 -170 270 -368 144 -198 270 -368 279 -378 15 -16 40 -17 294 -15
l276 3 -423 559 -424 560 181 240 c218 289 298 374 383 406 45 17 72 21 115
17 170 -15 230 -114 514 -842 235 -602 295 -724 411 -838 58 -57 112 -85 195
-98 35 -6 65 -11 66 -13 6 -6 -158 -400 -198 -476 -83 -161 -189 -228 -376
-237 l-103 -6 0 -200 0 -200 153 6 c258 10 405 66 548 207 93 92 145 169 214
314 40 83 973 2652 1003 2759 4 16 -12 17 -246 17 l-250 0 -181 -537 c-99
-296 -234 -695 -298 -886 l-118 -349 -33 5 c-74 13 -127 80 -199 255 -24 59
-109 286 -189 506 -80 219 -165 443 -189 498 -134 305 -288 462 -509 517 -87
23 -229 32 -318 21z"/>
<path d="M6935 3579 c-366 -45 -665 -247 -824 -559 -88 -172 -131 -353 -131
-554 0 -462 205 -823 570 -1003 170 -83 333 -117 565 -117 237 1 401 37 590
132 108 54 345 213 345 232 0 3 -67 72 -149 154 l-150 149 -39 -35 c-96 -87
-240 -166 -372 -204 -52 -15 -98 -19 -230 -18 -153 0 -171 2 -247 27 -150 50
-260 145 -327 281 -28 58 -66 173 -66 200 0 3 375 6 834 6 l834 0 7 75 c13
136 -13 348 -61 499 -123 385 -410 649 -782 720 -107 20 -269 27 -367 15z
m334 -428 c119 -41 219 -120 288 -228 37 -58 85 -180 97 -245 l7 -38 -596 0
c-489 0 -595 2 -595 13 0 8 9 43 21 78 72 220 223 376 419 431 91 25 269 20
359 -11z"/>
<path d="M9230 3565 c-312 -64 -525 -263 -611 -570 -23 -79 -23 -87 -26 -852
l-4 -773 236 0 235 0 0 708 c0 779 1 790 61 903 38 71 83 112 159 148 47 22
69 26 150 26 120 0 181 -20 250 -82 28 -25 63 -69 77 -97 58 -115 57 -89 60
-878 l4 -728 234 0 234 0 4 733 c3 800 1 774 63 887 63 116 185 178 329 167
126 -9 213 -64 266 -166 49 -95 51 -124 59 -666 6 -437 9 -519 24 -570 57
-203 166 -314 347 -359 39 -10 135 -19 238 -23 l171 -6 0 201 0 202 -82 0
c-123 1 -176 29 -215 115 -16 36 -18 91 -24 540 -6 537 -6 538 -64 690 -88
235 -282 397 -537 449 -97 20 -294 21 -385 2 -148 -31 -311 -113 -387 -195
-17 -17 -35 -31 -41 -31 -6 0 -24 14 -41 31 -78 82 -241 164 -386 193 -94 19
-305 20 -398 1z"/>
</g>
</svg>
