<?xml version="1.0" standalone="no"?>
<!DOCTYPE svg PUBLIC "-//W3C//DTD SVG 20010904//EN"
 "http://www.w3.org/TR/2001/REC-SVG-20010904/DTD/svg10.dtd">
<svg version="1.0" xmlns="http://www.w3.org/2000/svg"
 width="225.000000pt" height="225.000000pt" viewBox="0 0 225.000000 225.000000"
 preserveAspectRatio="xMidYMid meet">

<g transform="translate(0.000000,225.000000) scale(0.100000,-0.100000)"
fill="#000000" stroke="none">
<path d="M945 2154 c-211 -38 -390 -130 -547 -282 -423 -409 -423 -1085 0
-1494 512 -495 1346 -352 1664 287 255 512 41 1138 -477 1397 -192 96 -428
130 -640 92z m415 -89 c348 -94 612 -359 706 -710 27 -100 27 -360 0 -460 -95
-352 -359 -616 -711 -711 -100 -27 -360 -27 -460 0 -351 94 -616 359 -711 711
-27 100 -27 360 0 460 95 353 375 632 712 709 38 8 78 18 89 20 48 11 312 -2
375 -19z"/>
<path d="M1043 2013 c-10 -4 -13 -172 -13 -794 l0 -789 320 0 320 0 0 90 0 90
-225 0 -225 0 0 699 c0 628 -2 699 -16 705 -18 7 -143 7 -161 -1z"/>
<path d="M695 1907 c-33 -18 -72 -41 -87 -52 l-27 -20 -1 -702 0 -703 90 0 90
0 2 313 3 312 90 5 90 5 0 78 0 77 -92 0 -93 0 -2 359 -3 360 -60 -32z"/>
<path d="M1490 1580 l0 -360 -95 0 -95 0 0 -80 0 -79 93 -3 92 -3 3 -177 2
-178 90 0 90 0 0 568 0 567 -48 32 c-26 17 -66 41 -89 52 l-43 21 0 -360z"/>
</g>
</svg>
