<?xml version="1.0" encoding="UTF-8"?> <svg xmlns="http://www.w3.org/2000/svg" height="236" viewBox="0 0 308 236" width="308"><g fill="none"><g fill="#000" transform="translate(0 184.317031)"><path d="m43.4092004 37.7703057c-2.0106399-2.1641922-3.3510665-2.1126638-6.8567977 0-2.5261886 1.4943231-6.0834746 3.7100436-10.5687483 3.7100436-8.5581084 0-14.4353636-7.110917-14.4353636-15.6646288v-.1545851c0-8.5537118 6.0319198-15.5100437 14.4353636-15.5100437 3.7635055 0 7.93945 2.009607 9.8469801 3.2978166 2.4746338 1.6489083 4.7430481 2.3187773 7.527011-.4637555 2.1137497-2.1126637 4.6399383-3.76157201-.1546646-7.4200873-3.7635055-2.88558952-9.3829863-5.51353712-17.2193265-5.51353712-15.3117963 0-25.9836544 11.59388642-25.9836544 25.76419212v.1545852c0 14.3248908 10.8780775 25.609607 25.5712154 25.609607 8.4549987 0 15.1055769-3.6069869 18.5597532-7.0078603 3.0417373-3.0401747 1.5466461-4.3283843-.7217682-6.8017467"></path><path d="m93.6751985 25.9187773c0 8.5537118-6.1350295 15.5100437-14.9509123 15.5100437-8.3518889-.1030568-15.1055768-7.1109171-15.1055768-15.6646289v-.1545851c0-8.5537118 6.1350295-15.5100437 14.9509122-15.5100437 8.351889.1030568 15.1055769 7.110917 15.1055769 15.6646288zm11.4451815-.1545852v-.1545851c0-14.1703057-11.0327425-25.609607-26.3960938-25.609607-14.641583.05152838-26.5507579 11.5938865-26.5507579 25.7641921v.1545852c-.7733231 14.1703057 11.0327421 25.609607 26.3960933 25.609607 14.6931379-.0515284 26.5507584-11.5938865 26.5507584-25.7641922"></path><path d="m164.150706 47.3030568c0 1.8550218-1.495092 3.3493449-3.351067 3.3493449h-4.175944c-1.855976 0-3.351067-1.4943231-3.351067-3.3493449v-25.8157206c0-1.8550218-.824878-2.1126637-1.855975-.5668122l-9.743871 15.0978166c-1.031097 1.5458515-3.763505 1.6489083-4.897712-.1545851-.876433-1.3912664-9.84698-14.7371179-9.84698-14.7371179-1.031098-1.5458516-1.855976-1.2882097-1.855976.5668122v25.609607c0 1.8550218-1.495091 3.3493449-3.351066 3.3493449h-4.433719c-1.598201 0-2.938628-1.3397379-2.938628-2.9371179v-43.48995629c0-1.85502183 1.495092-3.34934498 3.351067-3.34934498h5.103932c1.855975 0 4.175944 1.28820961 5.155487 2.83406114l9.537651 15.35545853c.979542 1.5973799 2.577743 1.5973799 3.557286 0l9.537651-15.35545853c.979542-1.59737991 3.299511-2.83406114 5.155487-2.83406114h5.103932c1.855975 0 3.351066 1.49432315 3.351066 3.34934498v43.07772929z"></path><path d="m205.188382 18.4471616v-.4637555c0-4.8951965-2.268414-7.5231441-8.918993-7.2655022h-5.103932c-1.855975 0-3.351066 1.4943232-3.351066 3.349345v8.5021834c0 1.8550218 1.495091 3.349345 3.351066 3.349345h5.310152c5.464816.0515284 8.918992-2.8340611 8.712773-7.4716157m11.084297-.3606987v.1545851c0 11.5423581-7.887895 17.828821-20.157954 17.5196507h-4.949268c-1.855975 0-3.351066 1.4943231-3.351066 3.349345v8.2445415c0 1.8550218-1.495091 3.3493449-3.351067 3.3493449h-4.227499c-1.855975 0-3.351067-1.4943231-3.351067-3.3493449v-43.0777293c0-1.85502184 1.495092-3.34960114 3.351067-3.34960114h17.013107c11.806065-.05127223 20.364174 7.67798541 19.023747 17.15920814"></path><path d="m246.741607 26.7947598-4.072835-9.9449781c-.721768-1.7004367-1.855975-1.7004367-2.526188 0l-4.072835 9.9449781c-.721768 1.7004367.206219 3.0917031 2.062195 3.0917031h6.547468c1.804421 0 2.732408-1.3912664 2.062195-3.0917031m17.837985 23.9606987h-4.743048c-1.855975 0-3.91817-1.3912664-4.639938-3.091703l-2.01064-4.9467249c-.721768-1.7004367-2.783963-3.0917031-4.639938-3.0917031h-14.332254c-1.855976 0-3.91817 1.3912664-4.639939 3.0917031l-2.01064 4.9467249c-.721768 1.7004366-2.783962 3.091703-4.639938 3.091703h-4.433719c-1.855975 0-2.783963-1.3912664-2.062194-3.091703l18.714417-43.95371183c.721769-1.70043668 2.835518-3.09170306 4.691494-3.09170306h3.81506c1.598201 0 3.454176 1.18515284 4.072835 2.67947598l18.869082 44.36593891c.721768 1.7004366-.154665 3.091703-2.01064 3.091703"></path><path d="m307.370134 3.71004367-15.569571 24.26986903c-.979542 1.5458515-1.80442 4.3283842-1.80442 6.1834061v13.139738c0 1.8550218-1.495091 3.3493449-3.351067 3.3493449h-4.227499c-1.855975 0-3.351067-1.4943231-3.351067-3.3493449v-12.9336245c0-1.8550218-.824877-4.6375546-1.80442-6.1834061l-15.569571-24.47598253c-.979542-1.54585153-.309329-2.83406114 1.546646-2.83406114h6.083475c1.855975 0 4.12439 1.28820961 5.052377 2.88558952l8.454999 14.22183405c.927988 1.5973799 2.474634 1.5973799 3.454176 0l8.661218-14.53100435c.927988-1.59737992 3.247957-2.83406114 5.052378-2.78253275l5.72259.15458515c1.90753 0 2.629299 1.33973799 1.649756 2.88558952"></path></g><g transform="translate(77.744744)"><path d="m125.948547 109.70393c-5.877255-6.337991-9.74387-6.080349-19.951735-.051528-5.103932 2.988646-11.7545099 7.059388-19.7455148 9.223581-3.4026214.92751-7.0630171 1.494323-10.9296324 1.494323-24.8494472 0-42.0172189-20.6628824-42.0172189-45.4995636v-.4122271c0-24.8366812 17.5802106-45.0873363 42.0172189-45.0873363 3.5057312 0 7.1661269.6183407 10.723413 1.59738 7.3723464 2.0096069 14.1260342 5.5135371 17.9926492 7.9868995 7.011463 4.5860262 13.352712 6.6471616 21.137497-.6183406.257774-.2576419.515549-.4637555.773323-.7213974 6.083475-6.0803493 13.404266-10.9755458-.412439-21.590393-9.022102-6.90480348-21.7046-13.29432313-38.5630426-15.30393012-.6186584-.05152838-1.2888717 4.99825328-1.9075302 4.94672489-.5671035-.05152838-1.1342071-5.2558952-1.7013107-5.30742358-2.5261886-.20611354-5.1039321-.30917031-7.8363402-.30917031-44.4918527 0-75.5278843 33.69956332-75.5278843 74.87074232v.4122271c0 41.5834062 31.6546901 74.4585152 74.2905674 74.4585152 2.5777435 0 5.0523773-.103057 7.4754562-.30917.6186584-.051529.9795425-3.400874 1.5982009-3.452402.6186585-.051528 1.4950913 3.143231 2.1137497 3.040175 19.2299668-2.576419 34.2839888-11.336245 42.6874318-19.632315 8.403444-8.347598 4.743048-12.160698-1.495091-18.859388-.206219-.360699-.463994-.618341-.721768-.875983z" fill="#e41e0a"></path><path d="m128.113852 109.652402c-.463994.257642-.927988.566812-1.443537.824454-7.217682 4.225327-17.116217 9.841921-29.231611 9.841921-3.9181701 0-7.6816756-.515284-11.1874068-1.494323-18.611308-5.152838-30.7782572-23.1362444-30.7782572-44.00524v-.4122271c0-20.7144105 12.270059-38.2855895 30.5720378-43.4899563 3.6088409-1.0305677 7.4239012-1.5973799 11.4451811-1.5973799 10.3109741 0 21.7046001 5.2558952 27.6849651 8.9659388.360884.2061136.670213.4122271.979543.6183406 7.269236 4.7406114 13.76515 6.7502184 21.910819-1.339738 6.083475-6.0803493 13.404266-10.9755458-.412439-21.590393-10.929632-8.39912661-27.272526-15.9737991-49.9566686-15.9737991-3.6603958 0-7.2176818.25764192-10.723413.669869-38.6661524 4.94672489-64.8044714 36.4305677-64.8044714 74.149345v.412227c0 37.924891 26.3445385 68.635808 63.3609351 73.68559 3.557286.463755 7.1661269.721397 10.9296324.721397 24.5916725 0 43.9247495-10.51179 53.9263935-20.353712 8.764328-8.656768 4.433719-12.469869-2.216859-19.632314-5.92881-6.286463-9.84698-6.028821-20.054844 0z" fill="#62b9e9"></path><path d="m97.4902589 120.318777c-3.9181701 0-7.6816756-.515284-11.1874068-1.494323-1.7528656.30917-5.4132613 1.133625-8.3518889 1.391267-.8248779.051528-1.7013107.103056-2.5777435.103056-19.023747-1.288209-34.7995371-20.6628818-34.7995371-45.499563v-.4122271c0-24.7851528 16.0335645-42.4593886 34.7995371-45.0873362 1.1342071 0 2.3199692.0515283 3.4541763.2061135 2.5777435.3606987 5.6710357 1.0820961 7.2176818 1.3912664 3.6088409-1.0305677 7.4239012-1.5973799 11.4451811-1.5973799 10.3109741 0 21.7046001 5.2558952 27.6849651 8.9659388.257774-.2576419.515549-.4637554.773323-.7213974 6.083475-6.0803493 13.404266-10.9755458-.412439-21.590393-9.022102-6.90480347-21.7046-13.29432312-38.5630426-15.3039301-1.185762-.15458516-2.371524-.25764193-3.6088409-.36069869-40.6252374 3.40087336-68.8773061 35.65764189-68.8773061 74.56157209v.412227c0 39.1100436 28.5613979 70.4908296 67.33066 74.0978166 1.2373169-.103057 2.5261887-.257642 3.7119507-.412227 19.2299669-2.576419 34.2839889-11.336245 42.6874319-19.632314 8.403444-8.347599 4.743048-12.160699-1.495091-18.859389-7.217682 4.225327-17.167772 9.841921-29.2316111 9.841921z" fill="#2e2382"></path></g></g></svg> 